<?xml version="1.0" encoding="UTF-8" standalone="no"?>
<!-- Created with Inkscape (http://www.inkscape.org/) -->

<svg
   xmlns:dc="http://purl.org/dc/elements/1.1/"
   xmlns:cc="http://creativecommons.org/ns#"
   xmlns:rdf="http://www.w3.org/1999/02/22-rdf-syntax-ns#"
   xmlns:svg="http://www.w3.org/2000/svg"
   xmlns="http://www.w3.org/2000/svg"
   xmlns:xlink="http://www.w3.org/1999/xlink"
   xmlns:sodipodi="http://sodipodi.sourceforge.net/DTD/sodipodi-0.dtd"
   xmlns:inkscape="http://www.inkscape.org/namespaces/inkscape"
   width="1000"
   height="1000"
   viewBox="0 0 210 297"
   version="1.1"
   id="svg8"
   inkscape:version="0.92.4 (5da689c313, 2019-01-14)"
   sodipodi:docname="philogram_favIcon.svg">
  <defs
     id="defs2">
    <linearGradient
       inkscape:collect="always"
       id="5018">
      <stop
         style="stop-color:#6b6cf6;stop-opacity:1;"
         offset="0"
         id="stop5015" />
      <stop
         style="stop-color:#6b6cf6;stop-opacity:0;"
         offset="1"
         id="stop5017" />
    </linearGradient>
    <meshgradient
       inkscape:collect="always"
       id="meshgradient2336"
       gradientUnits="userSpaceOnUse"
       x="-80.625"
       y="-37.125">
      <meshrow
         id="meshrow2338">
        <meshpatch
           id="meshpatch2340">
          <stop
             path="c 123.75,0  247.5,0  371.25,0"
             style="stop-color:#ffffff;stop-opacity:1"
             id="stop2342" />
          <stop
             path="c 0,123.75  0,247.5  0,371.25"
             style="stop-color:#6b6cf6;stop-opacity:1"
             id="stop2344" />
          <stop
             path="c -123.75,0  -247.5,0  -371.25,0"
             style="stop-color:#ffffff;stop-opacity:1"
             id="stop2346" />
          <stop
             path="c 0,-123.75  0,-247.5  0,-371.25"
             style="stop-color:#6b6cf6;stop-opacity:1"
             id="stop2348" />
        </meshpatch>
      </meshrow>
    </meshgradient>
    <linearGradient
       inkscape:collect="always"
       xlink:href="#5018"
       id="linearGradient5021"
       x1="106.20763"
       y1="145.19226"
       x2="-42.299938"
       y2="296.09995"
       gradientUnits="userSpaceOnUse"
       spreadMethod="pad" />
  </defs>
  <sodipodi:namedview
     id="base"
     pagecolor="#ffffff"
     bordercolor="#666666"
     borderopacity="1.0"
     inkscape:pageopacity="0.0"
     inkscape:pageshadow="2"
     inkscape:zoom="0.98994949"
     inkscape:cx="501.43869"
     inkscape:cy="453.95433"
     inkscape:document-units="px"
     inkscape:current-layer="svg8"
     showgrid="false"
     inkscape:window-width="2475"
     inkscape:window-height="1411"
     inkscape:window-x="76"
     inkscape:window-y="-9"
     inkscape:window-maximized="1" />
  <metadata
     id="metadata5">
    <rdf:RDF>
      <cc:Work
         rdf:about="">
        <dc:format>image/svg+xml</dc:format>
        <dc:type
           rdf:resource="http://purl.org/dc/dcmitype/StillImage" />
        <dc:title></dc:title>
      </cc:Work>
    </rdf:RDF>
  </metadata>
  <path
     style="fill:#ffffff;fill-opacity:1;stroke:none;stroke-width:0.36263698;stroke-miterlimit:4;stroke-dasharray:none;stroke-opacity:1"
     d="M 30.75,0 C -10.257143,0 -43.5,33.242858 -43.5,74.249998 V 222.75 c 10e-7,41.00714 33.24286,74.25 74.25,74.25 h 148.5 c 41.00714,0 74.25,-33.24286 74.25,-74.25 V 74.249998 C 253.5,33.242855 220.25714,0 179.25,0 Z"
     id="path829-9-6"
     inkscape:connector-curvature="0"
     sodipodi:nodetypes="sssssssss" />
  <path
     style="fill:url(#linearGradient5021);fill-opacity:1;stroke:none;stroke-width:0.36263698;stroke-miterlimit:4;stroke-dasharray:none;stroke-opacity:1"
     d="M 30.749999,0 C -10.257143,0 -43.5,33.242858 -43.5,74.25 v 148.5 c 10e-7,41.00714 33.242858,74.25 74.249999,74.25 H 179.25 c 41.00714,0 74.25,-33.24286 74.25,-74.25 V 74.25 C 253.5,33.242857 220.25714,-1e-6 179.25,0 Z"
     id="path829-9"
     inkscape:connector-curvature="0"
     sodipodi:nodetypes="sssssssss" />
  <g
     inkscape:label="Layer 1"
     inkscape:groupmode="layer"
     id="layer1"
     transform="matrix(0.8,0,0,0.8,21,29.7)">
    <path
       style="fill:#ffffff;fill-opacity:1;stroke:none;stroke-width:59.77717209;stroke-linejoin:round;stroke-miterlimit:4;stroke-dasharray:none;stroke-opacity:1"
       d="M 500,250 C 361.92881,250 250,361.92881 250,500 v 300 h 75 V 678.45508 C 371.71925,724.29132 434.55041,749.97847 500,750 638.07119,750 750,638.07119 750,500 750,361.92881 638.07119,250 500,250 Z m 0,100 A 150,150 0 0 1 650,500 150,150 0 0 1 500,650 150,150 0 0 1 350,500 150,150 0 0 1 500,350 Z"
       transform="matrix(0.297,0,0,0.297,-43.5,0)"
       id="path913"
       inkscape:connector-curvature="0" />
    <circle
       style="fill:#ffffff;fill-opacity:1;stroke:none;stroke-width:16.64121246;stroke-linejoin:round;stroke-miterlimit:4;stroke-dasharray:none;stroke-opacity:1"
       id="path949"
       cx="182.22"
       cy="71.279999"
       r="22.275" />
    <rect
       style="fill:#ffffff;fill-opacity:1;stroke-width:0.29116845"
       id="rect827"
       width="29.700001"
       height="51.302616"
       x="30.75"
       y="186.29436" />
    <path
       style="fill:#ffffff;fill-opacity:1;stroke-width:1.22092104"
       d="M 250,0 A 250,250 0 0 0 0,250 v 500 a 250,250 0 0 0 250,250 H 750 A 250,250 0 0 0 1000,750 V 250 A 250,250 0 0 0 750,0 Z m 0,100 H 449.61523 550.30469 750 A 150,150 0 0 1 900,250 V 449.61523 550.30469 750 A 150,150 0 0 1 750,900 H 550.38477 449.69531 250 A 150,150 0 0 1 100,750 V 550.38477 449.69531 250 A 150,150 0 0 1 250,100 Z"
       transform="matrix(0.297,0,0,0.297,-43.5,0)"
       id="path829"
       inkscape:connector-curvature="0" />
  </g>
</svg>
