<?xml version="1.0" encoding="UTF-8" standalone="no"?>
<!-- Created with Inkscape (http://www.inkscape.org/) -->

<svg
   xmlns:dc="http://purl.org/dc/elements/1.1/"
   xmlns:cc="http://creativecommons.org/ns#"
   xmlns:rdf="http://www.w3.org/1999/02/22-rdf-syntax-ns#"
   xmlns:svg="http://www.w3.org/2000/svg"
   xmlns="http://www.w3.org/2000/svg"
   xmlns:sodipodi="http://sodipodi.sourceforge.net/DTD/sodipodi-0.dtd"
   xmlns:inkscape="http://www.inkscape.org/namespaces/inkscape"
   width="1000"
   height="1000"
   viewBox="0 0 210 297"
   version="1.1"
   id="svg8"
   sodipodi:docname="philogram_Icon.svg">
  <defs
     id="defs2" />
  <sodipodi:namedview
     id="base"
     pagecolor="#ffffff"
     bordercolor="#666666"
     borderopacity="1.0"
     inkscape:pageopacity="0.0"
     inkscape:pageshadow="2"
     inkscape:zoom="0.98994949"
     inkscape:cx="331.39887"
     inkscape:cy="473.90652"
     inkscape:document-units="px"
     inkscape:current-layer="layer1"
     showgrid="false"
     inkscape:window-width="2475"
     inkscape:window-height="1411"
     inkscape:window-x="76"
     inkscape:window-y="-9"
     inkscape:window-maximized="1" />
  <metadata
     id="metadata5">
    <rdf:RDF>
      <cc:Work
         rdf:about="">
        <dc:format>image/svg+xml</dc:format>
        <dc:type
           rdf:resource="http://purl.org/dc/dcmitype/StillImage" />
      </cc:Work>
    </rdf:RDF>
  </metadata>
  <g
     inkscape:label="Layer 1"
     inkscape:groupmode="layer"
     id="layer1">
    <path
       style="fill:#000000;fill-opacity:1;stroke:none;stroke-width:59.77717209;stroke-linejoin:round;stroke-miterlimit:4;stroke-dasharray:none;stroke-opacity:1"
       d="M 500 250 C 361.92881 250 250 361.92881 250 500 L 250 800 L 325 800 L 325 799.99023 L 372.74609 799.99023 L 372.74609 715.13672 C 410.96807 737.75836 454.86035 749.98515 500 750 C 638.07119 750 750 638.07119 750 500 C 750 361.92881 638.07119 250 500 250 z M 500 375 A 125 125 0 0 1 625 500 A 125 125 0 0 1 500 625 A 125 125 0 0 1 375 500 A 125 125 0 0 1 500 375 z "
       transform="matrix(0.297,0,0,0.297,-43.5,0)"
       id="path913" />
    <circle
       style="fill:#000000;fill-opacity:1;stroke:none;stroke-width:16.64121246;stroke-linejoin:round;stroke-miterlimit:4;stroke-dasharray:none;stroke-opacity:1"
       id="path949"
       cx="182.22"
       cy="71.279999"
       r="22.275" />
    <circle
       style="fill:#000000;fill-opacity:1;stroke:none;stroke-width:75.47019196;stroke-linejoin:round;stroke-miterlimit:4;stroke-dasharray:none;stroke-opacity:1"
       id="path957"
       cx="30.749998"
       cy="74.25"
       r="74.25" />
    <circle
       style="fill:#fffffa;fill-opacity:1;stroke:none;stroke-width:11.20732307;stroke-linejoin:round;stroke-miterlimit:4;stroke-dasharray:none;stroke-opacity:1"
       id="path957-1"
       cx="30.75"
       cy="74.25"
       r="37.125" />
  </g>
</svg>
