<?xml version="1.0" encoding="UTF-8" standalone="no"?>
<!-- Created with Inkscape (http://www.inkscape.org/) -->

<svg
   xmlns:dc="http://purl.org/dc/elements/1.1/"
   xmlns:cc="http://creativecommons.org/ns#"
   xmlns:rdf="http://www.w3.org/1999/02/22-rdf-syntax-ns#"
   xmlns:svg="http://www.w3.org/2000/svg"
   xmlns="http://www.w3.org/2000/svg"
   xmlns:sodipodi="http://sodipodi.sourceforge.net/DTD/sodipodi-0.dtd"
   xmlns:inkscape="http://www.inkscape.org/namespaces/inkscape"
   width="1000"
   height="1000"
   viewBox="0 0 1000 1000"
   version="1.1"
   id="svg8"
   inkscape:version="0.92.4 (5da689c313, 2019-01-14)"
   sodipodi:docname="phillographic-logo.svg">
  <defs
     id="defs2" />
  <sodipodi:namedview
     id="base"
     pagecolor="#ffffff"
     bordercolor="#666666"
     borderopacity="1.0"
     inkscape:pageopacity="0.0"
     inkscape:pageshadow="2"
     inkscape:zoom="0.98994949"
     inkscape:cx="259.96902"
     inkscape:cy="556.15646"
     inkscape:document-units="px"
     inkscape:current-layer="layer1"
     showgrid="false"
     inkscape:window-width="2475"
     inkscape:window-height="1411"
     inkscape:window-x="76"
     inkscape:window-y="-9"
     inkscape:window-maximized="1"
     showguides="false">
    <sodipodi:guide
       position="-303.04576,1181.8785"
       orientation="0,1"
       id="guide844"
       inkscape:locked="false" />
  </sodipodi:namedview>
  <metadata
     id="metadata5">
    <rdf:RDF>
      <cc:Work
         rdf:about="">
        <dc:format>image/svg+xml</dc:format>
        <dc:type
           rdf:resource="http://purl.org/dc/dcmitype/StillImage" />
        <dc:title />
      </cc:Work>
    </rdf:RDF>
  </metadata>
  <g
     inkscape:label="Layer 1"
     inkscape:groupmode="layer"
     id="layer1">
    <path
       style="fill:#000000;fill-opacity:0.99717515;stroke:none;stroke-width:1.42726552;stroke-miterlimit:4;stroke-dasharray:none;stroke-opacity:1"
       d="M 340 250 L 340 300 L 200 300 L 200 700 L 800 700 L 800 300 L 730 300 L 730 270 L 680 270 L 680 300 L 560 300 L 560 250 L 340 250 z M 380 300 L 520 300 L 520 315.09961 L 520 350 L 520 350.49219 L 753.55273 350.49219 L 753.55273 650.49219 L 253.55273 650.49219 L 253.55273 350.49219 L 380 350.49219 L 380 350 L 380 315.09961 L 380 300 z "
       id="rect881" />
  </g>
  <g
     inkscape:groupmode="layer"
     id="layer3"
     inkscape:label="Layer 2">
    <path
       style="fill:#000000;fill-opacity:0.99717515;stroke:none;stroke-width:1.23985434;stroke-miterlimit:4;stroke-dasharray:none;stroke-opacity:1"
       d="M 450,360 A 140,140 0 0 0 310,500 140,140 0 0 0 450,640 140,140 0 0 0 590,500 140,140 0 0 0 450,360 Z m 0,40 A 100,100 0 0 1 550,500 100,100 0 0 1 450,600 100,100 0 0 1 350,500 100,100 0 0 1 450,400 Z"
       id="path900"
       inkscape:connector-curvature="0" />
    <rect
       style="fill:#000000;fill-opacity:0.99717515;stroke:none;stroke-width:1.18373895;stroke-miterlimit:4;stroke-dasharray:none;stroke-opacity:1"
       id="rect918"
       width="90"
       height="50"
       x="640"
       y="370" />
    <circle
       style="fill:#000000;fill-opacity:0.99717515;stroke:none;stroke-width:1.27278626;stroke-miterlimit:4;stroke-dasharray:none;stroke-opacity:1"
       id="path922"
       cx="405"
       cy="450.68008"
       r="20" />
    <rect
       style="fill:#000000;fill-opacity:0.99717515;stroke:none;stroke-width:1.22099996;stroke-miterlimit:4;stroke-dasharray:none;stroke-opacity:1"
       id="rect966"
       width="9.0913725"
       height="33.335033"
       x="384.86813"
       y="447.44656" />
    <rect
       style="fill:#000000;fill-opacity:0.99717515;stroke:none;stroke-width:1.22099996;stroke-miterlimit:4;stroke-dasharray:none;stroke-opacity:1"
       id="rect968"
       width="166.67517"
       height="9.0913725"
       x="575"
       y="440.90863" />
    <rect
       style="fill:#000000;fill-opacity:0.99717515;stroke:none;stroke-width:1.22099996;stroke-miterlimit:4;stroke-dasharray:none;stroke-opacity:1"
       id="rect968-3"
       width="166.67517"
       height="9.0913725"
       x="575"
       y="550.90863" />
  </g>
</svg>
