<?xml version="1.0" encoding="UTF-8" standalone="no"?>
<!-- Created with Inkscape (http://www.inkscape.org/) -->

<svg
   xmlns:dc="http://purl.org/dc/elements/1.1/"
   xmlns:cc="http://creativecommons.org/ns#"
   xmlns:rdf="http://www.w3.org/1999/02/22-rdf-syntax-ns#"
   xmlns:svg="http://www.w3.org/2000/svg"
   xmlns="http://www.w3.org/2000/svg"
   xmlns:sodipodi="http://sodipodi.sourceforge.net/DTD/sodipodi-0.dtd"
   xmlns:inkscape="http://www.inkscape.org/namespaces/inkscape"
   width="1000"
   height="1000"
   viewBox="0 0 210 297"
   version="1.1"
   id="svg8"
   inkscape:version="0.92.4 (5da689c313, 2019-01-14)"
   sodipodi:docname="phillographic-logo-v2.svg"
   inkscape:export-filename="C:\Users\Phill\_Development\_WebDev\svg-development\phillographic-logo\phillographic-logo-v2-orange-corners2.png"
   inkscape:export-xdpi="96"
   inkscape:export-ydpi="96">
  <defs
     id="defs2" />
  <sodipodi:namedview
     id="base"
     pagecolor="#ffffff"
     bordercolor="#666666"
     borderopacity="1.0"
     inkscape:pageopacity="0.0"
     inkscape:pageshadow="2"
     inkscape:zoom="1.218"
     inkscape:cx="500"
     inkscape:cy="500"
     inkscape:document-units="px"
     inkscape:current-layer="layer1"
     showgrid="false"
     inkscape:window-width="2475"
     inkscape:window-height="1411"
     inkscape:window-x="76"
     inkscape:window-y="-9"
     inkscape:window-maximized="1" />
  <metadata
     id="metadata5">
    <rdf:RDF>
      <cc:Work
         rdf:about="">
        <dc:format>image/svg+xml</dc:format>
        <dc:type
           rdf:resource="http://purl.org/dc/dcmitype/StillImage" />
        <dc:title />
      </cc:Work>
    </rdf:RDF>
  </metadata>
  <g
     inkscape:label="Layer 1"
     inkscape:groupmode="layer"
     id="layer1"
     inkscape:export-xdpi="72"
     inkscape:export-ydpi="72"
     transform="matrix(0.75,0,0,0.75,26.25,37.125)">
    <path
       style="fill:#25282a;fill-opacity:1;stroke:none;stroke-width:44.83287811;stroke-linejoin:round;stroke-miterlimit:4;stroke-dasharray:none;stroke-opacity:1"
       d="M 500 312.5 C 396.44661 312.5 312.5 396.44661 312.5 500 L 312.5 595.43945 L 312.5 724.99219 L 312.5 725 L 368.75 725 L 368.75 724.99219 L 387.5 724.99219 L 387.5 649.9375 C 419.77334 674.16639 459.2048 687.48658 500 687.5 C 603.55339 687.5 687.5 603.55339 687.5 500 C 687.5 396.44661 603.55339 312.5 500 312.5 z M 500 387.5 A 112.5 112.5 0 0 1 612.5 500 A 112.5 112.5 0 0 1 500 612.5 A 112.5 112.5 0 0 1 387.5 500 A 112.5 112.5 0 0 1 500 387.5 z "
       transform="matrix(0.396,0,0,0.396,-93,-49.5)"
       id="path913" />
    <circle
       style="fill:#25282a;fill-opacity:1;stroke:none;stroke-width:16.64121246;stroke-linejoin:round;stroke-miterlimit:4;stroke-dasharray:none;stroke-opacity:1"
       id="path949"
       cx="182.22"
       cy="71.279999"
       r="22.275" />
    <path
       style="fill:#25282a;fill-opacity:1;stroke-width:1.22092104"
       d="M 250,0 A 250,250 0 0 0 0,250 v 500 a 250,250 0 0 0 250,250 H 750 A 250,250 0 0 0 1000,750 V 250 A 250,250 0 0 0 750,0 Z m 0,100 H 449.61523 550.30469 750 A 150,150 0 0 1 900,250 V 449.61523 550.30469 750 A 150,150 0 0 1 750,900 H 550.38477 449.69531 250 A 150,150 0 0 1 100,750 V 550.38477 449.69531 250 A 150,150 0 0 1 250,100 Z"
       transform="matrix(0.297,0,0,0.297,-43.5,0)"
       id="path829"
       inkscape:connector-curvature="0" />
    <path
       style="fill:#f54336;fill-opacity:1;stroke-width:0.91569078"
       d="M 312.5 125 A 187.5 187.5 0 0 0 125 312.5 L 125 500 L 200 500 L 200 462.27148 L 200 312.5 A 112.5 112.5 0 0 1 312.5 200 L 462.21094 200 L 500 200 L 500 125 L 312.5 125 z M 800 500 L 800 537.72852 L 800 687.5 A 112.5 112.5 0 0 1 687.5 800 L 537.78906 800 L 500 800 L 500 875 L 687.5 875 A 187.5 187.5 0 0 0 875 687.5 L 875 500 L 800 500 z "
       id="path829-4"
       transform="matrix(0.396,0,0,0.396,-93,-49.5)" />
    <path
       style="fill:#f54336;fill-opacity:1;stroke-width:0.36261356"
       d="m -80.889163,183.41009 a 74.25,74.25 0 0 0 74.249999,74.25 h 74.25 v -29.7 h -14.94049 -59.30951 a 44.55,44.55 0 0 1 -44.55,-44.55 V 124.12456 109.16009 H -80.889163 Z M 67.610836,-9.6399013 h 14.94049 59.309514 a 44.55,44.55 0 0 1 44.55,44.5499953 v 59.28553 14.964466 h 29.7 V 34.910094 a 74.25,74.25 0 0 0 -74.25,-74.249995 H 67.610836 Z"
       id="path829-4-5"
       inkscape:connector-curvature="0" />
  </g>
</svg>
